<svg width="33" height="32" viewBox="0 0 33 32" fill="none" xmlns="http://www.w3.org/2000/svg">
<path d="M32.3417 15.6552C32.3726 11.6999 30.8602 7.74838 27.7886 4.73688C24.8005 1.80662 20.8002 0.192261 16.5267 0.192261C12.2531 0.192261 8.21645 1.80599 5.16165 4.73688C2.02087 7.74963 0.418672 11.7037 0.362381 15.6615C0.360905 15.6772 0.352309 15.6911 0.352124 15.7074C0.35194 15.7238 0.359582 15.737 0.361345 15.7534C0.328428 19.7112 1.84151 23.6646 4.91436 26.6793C7.90377 29.6083 11.904 31.2233 16.1769 31.2233C20.4499 31.2233 24.4865 29.6095 27.5413 26.6786C30.6808 23.6678 32.2829 19.7144 32.3399 15.7591C32.342 15.7414 32.3519 15.7257 32.3521 15.7074C32.3523 15.6886 32.3434 15.6728 32.3417 15.6552ZM20.0242 12.1847C22.0047 14.1277 21.9691 17.2872 19.9449 19.2289C18.9649 20.169 17.6689 20.6871 16.2957 20.6871C14.9224 20.6871 13.6388 20.169 12.6794 19.2289C11.7206 18.2895 11.2003 17.0378 11.2153 15.7068C11.2303 14.3758 11.7788 13.1247 12.7594 12.1841C13.74 11.2434 15.0354 10.7252 16.4079 10.7252C17.7805 10.7259 19.0642 11.244 20.0242 12.1847ZM11.2909 3.0092C11.9997 2.73783 12.7365 2.51998 13.4811 2.36257C13.7466 2.30528 14.0025 2.46898 14.0575 2.72272C14.1117 2.97772 13.9427 3.22894 13.6791 3.28497C12.986 3.43105 12.3 3.63378 11.6407 3.88689C11.5814 3.90956 11.5202 3.92026 11.4605 3.92026C11.267 3.92026 11.0852 3.80756 11.0113 3.62182C10.9147 3.38005 11.0398 3.10553 11.2909 3.0092ZM2.72716 12.3704C3.06389 11.1244 3.5786 9.93065 4.25788 8.82377C4.87633 7.81512 5.63029 6.88138 6.49934 6.04776C7.35263 5.22925 8.30535 4.5184 9.33065 3.93537C9.56392 3.80441 9.86177 3.87745 9.99559 4.10159C10.1294 4.32637 10.0489 4.616 9.81624 4.74822C8.86152 5.29095 7.97428 5.95332 7.18006 6.71516C6.37204 7.49149 5.66945 8.361 5.09335 9.29914C4.46167 10.3298 3.98232 11.4399 3.66928 12.6003C3.61167 12.8143 3.41138 12.9573 3.19322 12.9573C3.15427 12.9573 3.11471 12.9528 3.07455 12.944C2.81426 12.8798 2.65873 12.6236 2.72716 12.3704ZM26.8606 26.0106C23.9915 28.7621 20.2002 30.2769 16.1876 30.2769C12.175 30.2769 8.4178 28.7621 5.61014 26.0106C2.83524 23.29 1.42851 19.7522 1.35125 16.1797H10.2607C10.3585 17.5837 10.958 18.8915 11.9849 19.8976C13.1267 21.0158 14.6547 21.6328 16.2863 21.6328C17.918 21.6328 19.4605 21.0164 20.6269 19.8976C21.7066 18.8619 22.3059 17.5359 22.4322 16.1797H31.3424C31.1826 19.7522 29.6974 23.29 26.8606 26.0106ZM13.6298 18.3179C14.3413 19.0155 15.2941 19.3996 16.3108 19.3996C17.327 19.3996 18.289 19.0161 19.0156 18.3179C20.5168 16.8779 20.5432 14.5338 19.0745 13.0951C18.3636 12.3975 17.4102 12.0128 16.3941 12.0128C15.3767 12.0128 14.4159 12.3969 13.6887 13.0951C12.1875 14.5345 12.1611 16.8779 13.6298 18.3179Z" fill="#FFF"/>
</svg>
