<svg width="191" height="186" viewBox="0 0 191 186" fill="none" xmlns="http://www.w3.org/2000/svg">
<path d="M183.233 129.235C192.447 107.661 193.207 82.5779 183.284 59.0737C173.633 36.2049 155.434 18.2228 132.047 8.44998C108.66 -1.32284 82.8801 -1.72275 59.4606 7.33062C35.3834 16.6353 17.5735 34.6095 8.21476 56.1395C8.17069 56.2223 8.09197 56.2785 8.05352 56.3676C8.01508 56.4568 8.02666 56.5466 7.99888 56.6402C-1.23195 78.2237 -1.99238 103.318 7.92968 126.843C17.5909 149.708 35.7886 167.693 59.1719 177.465C82.5552 187.236 108.335 187.636 131.755 178.582C155.821 169.285 173.629 151.314 182.985 129.799C183.037 129.708 183.128 129.644 183.171 129.545C183.215 129.442 183.202 129.336 183.233 129.235ZM123.763 82.0758C130.158 97.2377 122.738 114.446 107.22 120.443C99.7076 123.346 91.4305 123.218 83.9156 120.078C76.4007 116.938 70.5611 111.167 67.4603 103.828C64.3616 96.4951 64.3769 88.4556 67.5028 81.206C70.6286 73.9564 76.4909 68.3643 84.0084 65.4592C91.526 62.554 99.7994 62.6804 107.311 65.8193C114.821 68.9615 120.66 74.7326 123.763 82.0758ZM96.9531 11.8923C101.453 12.0282 105.983 12.521 110.417 13.3622C112.002 13.6559 113.028 15.137 112.748 16.6512C112.462 18.1707 110.962 19.1589 109.392 18.8628C105.265 18.0771 101.047 17.6179 96.8604 17.4954C96.4838 17.4837 96.1247 17.4024 95.7978 17.2658C94.7389 16.8234 94.0016 15.7908 94.0221 14.6054C94.0463 13.0614 95.3589 11.8454 96.9531 11.8923ZM28.6817 43.5374C33.3739 37.4887 38.9204 32.1329 45.169 27.629C50.86 23.5235 57.1212 20.1379 63.7833 17.5633C70.3246 15.0354 77.1638 13.324 84.1079 12.4781C85.684 12.2948 87.1469 13.3756 87.3667 14.9083C87.5849 16.4443 86.4819 17.8452 84.9065 18.0367C78.4408 18.8236 72.0707 20.4193 65.9822 22.7722C59.7851 25.1728 53.9519 28.3245 48.6539 32.1409C42.8401 36.3368 37.6785 41.3151 33.3118 46.9494C32.5071 47.9892 31.0842 48.3133 29.8903 47.8144C29.6771 47.7253 29.4707 47.6108 29.2711 47.4707C27.9936 46.524 27.7284 44.766 28.6817 43.5374ZM129.557 173.37C107.565 181.866 83.3528 181.486 61.3943 172.31C39.4359 163.134 22.339 146.252 13.2663 124.775C4.30242 103.541 4.69453 80.9633 12.4413 61.2366L61.1976 81.6107C58.522 89.518 58.8121 98.0453 62.1307 105.899C65.8222 114.63 72.7727 121.501 81.7018 125.232C90.6309 128.963 100.482 129.117 109.423 125.662C117.7 122.463 124.012 116.577 127.805 109.444L176.565 129.82C167.521 149.005 151.303 164.969 129.557 173.37ZM74.7449 101.016C77.0434 106.461 81.3788 110.741 86.943 113.067C92.5037 115.39 98.6451 115.492 104.218 113.332C115.726 108.885 121.231 96.1178 116.484 84.8861C114.189 79.4428 109.851 75.1574 104.291 72.8337C98.7227 70.5071 92.587 70.4119 87.0103 72.5699C75.504 77.0136 70.0005 89.7776 74.7449 101.016Z"/>
</svg>
